# xmcd
#
# Track frame offsets:
#	150
#	11696
#	35565
#	52750
#	72296
#	91867
#	103991
#	122193
#	140705
#	158116
#	171773
#	193848
#	208313
#	224404
#	245225
#
# Disc length: 3480 seconds
#
# Revision: 1
# Processed by: cddbd v1.5.1PL0 Copyright (c) Steve Scherf et al.
# Submitted via: audiograbber 1.83.01
#
DISCID=e70d960f
DTITLE=Travis Tritt - Greatest Hits - From The Beginning
DYEAR=1995
DGENRE=
TTITLE0=Here's A Quarter (Call Someone Who Cares)
TTITLE1=Anymore
TTITLE2=Put Some Drive In Your Country
TTITLE3=Foolish Pride
TTITLE4=The Whiskey Ain't Workin' - (with Marty Stuart)
TTITLE5=Help Me Hold On
TTITLE6=I'm Gonna Be Somebody
TTITLE7=Only You (And You Alone)
TTITLE8=T-R-O-U-B-L-E
TTITLE9=Tell Me I Was Dreaming
TTITLE10=Country Club
TTITLE11=Can I Trust You With My Heart
TTITLE12=Sometimes She Forgets
TTITLE13=Ten Feet Tall And Bulletproof
TTITLE14=Drift Off To Dream
EXTD=
EXTT0=
EXTT1=
EXTT2=
EXTT3=
EXTT4=
EXTT5=
EXTT6=
EXTT7=
EXTT8=
EXTT9=
EXTT10=
EXTT11=
EXTT12=
EXTT13=
EXTT14=
PLAYORDER=
